<svg width="16" height="20" viewBox="0 0 16 20" fill="none" xmlns="http://www.w3.org/2000/svg">
<path d="M14 18.9421H2.00005C1.33731 18.9421 0.800049 18.4049 0.800049 17.7421C0.800049 15.7572 2.03149 13.9806 3.89014 13.284L4.25916 13.1457C6.67117 12.2417 9.32893 12.2417 11.7409 13.1457L12.11 13.284C13.9686 13.9806 15.2 15.7572 15.2 17.7421C15.2 18.4049 14.6628 18.9421 14 18.9421Z" fill="#C2CCDE" fill-opacity="0.25"/>
<path d="M6.17048 9.60232C7.31887 10.1922 8.68123 10.1922 9.82961 9.60232C10.8984 9.05332 11.6641 8.05339 11.9155 6.87846L11.9826 6.56489C12.2397 5.36339 11.9651 4.10941 11.2294 3.12534L11.1216 2.98124C10.3858 1.99703 9.22891 1.41748 8.00005 1.41748C6.77118 1.41748 5.61428 1.99703 4.87846 2.98124L4.77072 3.12534C4.035 4.10941 3.76038 5.36339 4.01748 6.56489L4.08457 6.87846C4.33598 8.05339 5.10172 9.05332 6.17048 9.60232Z" fill="#C2CCDE" fill-opacity="0.25"/>
<path d="M14 18.9421H2.00005C1.33731 18.9421 0.800049 18.4049 0.800049 17.7421C0.800049 15.7572 2.03149 13.9806 3.89014 13.284L4.25916 13.1457C6.67117 12.2417 9.32893 12.2417 11.7409 13.1457L12.11 13.284C13.9686 13.9806 15.2 15.7572 15.2 17.7421C15.2 18.4049 14.6628 18.9421 14 18.9421Z" stroke="#414141" stroke-linecap="round" stroke-linejoin="round"/>
<path d="M6.17048 9.60232C7.31887 10.1922 8.68123 10.1922 9.82961 9.60232C10.8984 9.05332 11.6641 8.05339 11.9155 6.87846L11.9826 6.56489C12.2397 5.36339 11.9651 4.10941 11.2294 3.12534L11.1216 2.98124C10.3858 1.99703 9.22891 1.41748 8.00005 1.41748C6.77118 1.41748 5.61428 1.99703 4.87846 2.98124L4.77072 3.12534C4.035 4.10941 3.76038 5.36339 4.01748 6.56489L4.08457 6.87846C4.33598 8.05339 5.10172 9.05332 6.17048 9.60232Z" stroke="#414141" stroke-linecap="round" stroke-linejoin="round"/>
</svg>
