<svg width="24" height="25" viewBox="0 0 24 25" fill="none" xmlns="http://www.w3.org/2000/svg">
<path d="M18 21.4798L6.00005 21.4798C5.33731 21.4798 4.80005 20.9425 4.80005 20.2798C4.80005 18.2949 6.03149 16.5182 7.89014 15.8216L8.25916 15.6833C10.6712 14.7793 13.3289 14.7793 15.7409 15.6833L16.11 15.8216C17.9686 16.5182 19.2 18.2949 19.2 20.2798C19.2 20.9425 18.6628 21.4798 18 21.4798Z" fill="#FEC400" stroke="#FEC400" stroke-linecap="square" stroke-linejoin="round"/>
<path d="M9.60499 10.5254C10.902 11.9089 13.098 11.9089 14.395 10.5254C15.5789 9.2626 15.5789 7.29756 14.395 6.03476C13.098 4.65129 10.902 4.6513 9.60499 6.03476C8.42111 7.29756 8.42111 9.2626 9.60499 10.5254Z" fill="#FEC400" stroke="#FEC400" stroke-width="4" stroke-linecap="round" stroke-linejoin="round"/>
</svg>
